<svg xmlns="http://www.w3.org/2000/svg">
    <symbol id="telegram-icon" xmlns="http://www.w3.org/2000/svg">
        <path d="M0.946069 7.31531C0.423529 7.14113 0.419399 6.8601 0.956819 6.68096L20.043 0.31889C20.5715 0.14273 20.8746 0.43854 20.7265 0.95682L15.2733 20.0431C15.1223 20.5715 14.8177 20.5899 14.5944 20.0875L10.9999 11.9999L16.9999 3.99993L8.99992 9.99988L0.946069 7.31531Z" fill="#fff"/>
    </symbol>
    <symbol id="copyright-icon" xmlns="http://www.w3.org/2000/svg">
        <path d="M16.2877 9.42773C15.413 7.97351 13.8195 7 12 7C9.23999 7 7 9.23999 7 12C7 14.76 9.23999 17 12 17C13.8195 17 15.413 16.0265 16.2877 14.5723L14.5729 13.5442C14.0483 14.4166 13.0927 15 12 15C10.3425 15 9 13.6575 9 12C9 10.3425 10.3425 9 12 9C13.093 9 14.0491 9.58386 14.5735 10.4568L16.2877 9.42773ZM22 12C22 6.47998 17.52 2 12 2C6.47998 2 2 6.47998 2 12C2 17.52 6.47998 22 12 22C17.52 22 22 17.52 22 12ZM4 12C4 7.57996 7.57996 4 12 4C16.42 4 20 7.57996 20 12C20 16.42 16.42 20 12 20C7.57996 20 4 16.42 4 12Z" fill="#fff" fill-opacity="0.8"/>
    </symbol>
</svg>
